<?xml version="1.0" encoding="UTF-8" standalone="no"?>
<svg width="8.5in" height="11in" viewBox="0 0 816 1056" xmlns="http://www.w3.org/2000/svg">
<defs>
  <marker id="arrowhead" markerWidth="10" markerHeight="7" refX="0" refY="3.5" orient="auto">
    <polygon points="0 0, 10 3.5, 0 7" fill="black" />
  </marker>
</defs>
  <line x1="408" y1="528" x2="456" y2="528" stroke="red" stroke-width="2" marker-end="url(#arrowhead)" />
  <line x1="408" y1="528" x2="408" y2="480" stroke="green" stroke-width="2" marker-end="url(#arrowhead)" />
  <text x="408" y="528">{a}</text>
  <line x1="456" y1="508.8" x2="497.569" y2="484.8" stroke="red" stroke-width="2" marker-end="url(#arrowhead)" />
  <line x1="456" y1="508.8" x2="432" y2="467.231" stroke="green" stroke-width="2" marker-end="url(#arrowhead)" />
  <text x="456" y="508.8">{b}</text>
  <line x1="485.742" y1="502.714" x2="532.106" y2="515.137" stroke="red" stroke-width="2" marker-end="url(#arrowhead)" />
  <line x1="485.742" y1="502.714" x2="498.165" y2="456.349" stroke="green" stroke-width="2" marker-end="url(#arrowhead)" />
  <text x="485.742" y="502.714">{c}</text>
  <circle cx="523.2" cy="451.2" r="3" fill="purple" />
  <circle cx="523.2" cy="451.2" r="3" fill="brown" />
  <circle cx="523.2" cy="451.2" r="3" fill="orange" />
  <line x1="456" y1="508.8" x2="493.711" y2="420.517" stroke="brown" stroke-width="2" marker-end="url(#arrowhead)" />
  <line x1="408" y1="528" x2="445.711" y2="439.717" stroke="black" stroke-width="2" marker-end="url(#arrowhead)" />
  <line x1="523.2" y1="451.2" x2="560.911" y2="362.917" stroke="purple" stroke-width="2" marker-end="url(#arrowhead)" />
  <line x1="523.2" y1="451.2" x2="560.911" y2="362.917" stroke="orange" stroke-width="2" marker-end="url(#arrowhead)" />
</svg>